<?xml version="1.0" standalone="no"?>
<!DOCTYPE svg PUBLIC "-//W3C//DTD SVG 20010904//EN"
 "http://www.w3.org/TR/2001/REC-SVG-20010904/DTD/svg10.dtd">
<svg version="1.0" xmlns="http://www.w3.org/2000/svg"
 width="1280.000000pt" height="452.000000pt" viewBox="0 0 1280.000000 452.000000"
 preserveAspectRatio="xMidYMid meet">

<g transform="translate(0.000000,452.000000) scale(0.100000,-0.100000)"
fill="#000000" stroke="none">
<path d="M250 4511 c-35 -6 -35 -6 -36 -61 -4 -118 -4 -183 -3 -385 1 -115 1
-338 1 -495 -1 -157 0 -296 0 -310 1 -14 0 -65 -1 -115 -2 -49 0 -98 4 -108 4
-9 2 -24 -5 -32 -13 -16 -14 -84 -4 -470 3 -137 5 -331 5 -430 -1 -99 -1 -200
0 -225 3 -51 1 -191 -2 -232 -1 -15 5 -42 14 -61 21 -44 25 -79 11 -84 -6 -2
-14 5 -17 17 -3 11 -10 20 -16 20 -17 0 -13 -48 4 -58 13 -6 13 -14 4 -40 -9
-26 -8 -37 5 -56 12 -18 15 -46 13 -116 -3 -82 -1 -93 17 -106 20 -14 20 -14
1 -28 -16 -11 -17 -17 -7 -29 10 -11 10 -16 1 -19 -16 -5 -14 -141 1 -146 7
-3 5 -11 -6 -23 -9 -10 -14 -25 -11 -33 4 -9 -4 -23 -20 -36 -14 -11 -23 -23
-19 -27 4 -4 11 -1 16 7 16 25 22 4 26 -96 4 -75 2 -100 -10 -113 -15 -17 -11
-71 6 -71 5 0 7 -33 5 -79 -3 -46 -1 -83 5 -89 7 -7 7 -41 0 -102 -8 -61 -8
-99 -2 -111 13 -23 -3 -34 -29 -20 -14 8 -22 7 -32 -5 -18 -22 2 -39 30 -24
18 9 22 8 27 -7 22 -70 19 -69 137 -54 38 5 97 5 136 1 37 -5 134 -11 215 -14
81 -3 151 -8 155 -11 5 -2 154 -7 332 -10 178 -4 367 -9 419 -11 52 -3 106 -5
120 -5 51 0 727 12 775 14 28 1 93 0 145 -1 52 -2 110 0 129 4 27 5 37 3 47
-11 13 -18 14 -18 33 -1 15 13 28 16 48 11 15 -3 120 -5 233 -4 300 4 298 4
380 0 41 -2 123 -1 183 1 64 4 110 2 113 -4 4 -5 18 -6 33 -2 24 6 134 14 191
13 48 0 245 1 275 2 17 0 82 -2 145 -6 113 -7 453 -13 620 -12 47 0 99 -1 115
-2 17 -2 113 -2 215 0 239 4 346 3 448 -5 45 -3 82 -2 82 2 0 5 10 13 22 19
17 7 35 5 71 -10 41 -17 53 -18 85 -8 28 9 53 10 101 2 44 -7 69 -7 77 0 8 7
13 6 17 -3 3 -10 8 -11 26 0 26 15 46 15 87 0 18 -6 40 -8 50 -3 22 9 144 9
227 -1 54 -6 57 -6 57 15 0 27 27 28 35 1 5 -17 15 -20 70 -20 35 0 65 4 67
10 2 6 16 6 42 -1 37 -10 160 -8 172 3 3 3 20 2 37 -2 44 -11 180 -10 194 1 7
7 14 6 18 -1 9 -15 1952 -12 1976 3 11 7 30 7 60 -1 32 -8 420 -10 1409 -8
751 2 1379 5 1395 6 17 1 56 -1 89 -4 34 -4 64 -2 71 4 7 6 23 6 45 0 25 -7
36 -6 41 2 6 9 14 9 34 0 34 -16 45 -15 45 2 0 7 -10 17 -22 20 l-23 7 21 9
c12 5 27 24 33 42 23 71 36 944 14 974 -9 13 -10 21 -2 31 7 8 10 54 8 128 -3
79 -1 116 7 119 8 3 8 25 -2 83 -8 43 -11 85 -7 93 3 8 7 98 9 200 1 102 5
256 9 342 7 149 6 158 -12 158 -16 1 -16 2 -2 10 14 8 17 37 19 212 2 243 3
302 2 523 0 94 0 188 0 210 0 22 0 85 -1 140 -1 55 1 168 3 250 5 149 5 314 1
430 -1 33 2 85 7 115 4 31 4 58 -1 63 -5 5 -7 16 -4 23 3 8 2 22 -2 32 -4 9
-6 58 -5 109 1 102 -6 125 -47 141 -41 15 -221 23 -633 28 -337 3 -2017 6
-2085 4 -33 -2 -106 -2 -1604 -4 -847 -1 -1045 -3 -1049 -14 -3 -10 -9 -10
-28 2 -12 9 -33 16 -46 16 -13 0 -42 3 -65 6 -24 3 -43 2 -43 -3 0 -4 -68 -7
-151 -5 -97 2 -155 -1 -164 -8 -7 -6 -20 -8 -29 -4 -9 3 -22 2 -29 -4 -7 -5
-52 -7 -107 -4 -135 7 -273 2 -287 -10 -7 -6 -24 -8 -37 -4 -15 4 -28 0 -36
-9 -17 -21 -37 -19 -43 4 -5 22 -85 38 -114 23 -29 -15 -318 0 -379 19 -21 6
-40 6 -58 -1 -15 -5 -41 -10 -58 -10 -23 0 -29 -4 -24 -15 3 -9 0 -15 -8 -15
-8 0 -16 8 -19 19 -6 23 -62 31 -137 19 -30 -5 -113 -8 -184 -7 -89 0 -126 -3
-121 -10 10 -17 -6 -13 -51 11 -41 21 -43 21 -85 5 -37 -14 -45 -15 -57 -3
-10 10 -24 11 -54 4 -22 -5 -135 -5 -256 -2 -254 9 -257 9 -432 5 -74 -1 -291
0 -482 2 -266 4 -352 2 -371 -8 -14 -7 -30 -9 -39 -4 -23 13 -171 14 -195 1
-30 -16 -44 -15 -37 3 7 18 -26 21 -43 4 -7 -7 -22 -7 -50 0 -42 11 -2564 13
-2633 2z m175 -117 c28 -3 169 -7 315 -8 146 -1 293 -4 328 -7 34 -3 65 -3 67
1 2 4 163 5 357 3 194 -2 385 -4 423 -4 39 1 147 0 240 -1 94 -1 222 -1 285 1
63 1 122 3 130 3 8 0 44 -3 80 -7 36 -4 74 -7 85 -6 395 10 758 13 790 5 11
-3 51 0 90 5 38 6 74 6 80 2 9 -8 539 -16 635 -10 25 1 61 2 80 1 19 -1 114
-3 210 -5 96 -1 185 -6 196 -10 15 -5 23 -3 27 6 4 11 18 12 59 7 29 -4 78 -6
108 -4 30 2 82 3 115 2 246 -3 333 -2 502 2 105 2 194 2 197 -1 3 -3 42 -4 87
-2 51 2 87 -1 95 -8 9 -7 19 -8 27 -2 9 7 2231 10 2307 3 8 -1 51 -1 95 0 44
0 304 1 578 1 273 0 504 2 512 5 8 4 15 2 15 -2 0 -13 146 -10 162 3 21 17
158 12 158 -5 0 -11 7 -12 27 -6 16 4 47 9 69 10 23 1 46 4 51 7 6 4 27 2 48
-4 27 -8 44 -8 59 0 16 9 55 9 151 0 151 -13 183 -13 199 -1 18 15 154 11 167
-5 8 -9 23 -11 45 -7 20 4 40 2 47 -5 9 -7 32 -8 73 -1 32 5 111 9 174 9 63 0
165 -1 225 -1 61 0 124 0 140 0 17 0 103 2 193 5 103 3 162 1 162 -5 0 -6 12
-8 28 -5 48 10 262 15 268 6 7 -12 91 -11 99 1 11 18 74 11 92 -9 16 -19 17
-19 42 -1 21 16 45 19 126 20 116 1 135 0 135 -12 0 -4 7 -8 16 -8 11 0 14 -5
9 -17 -4 -10 -9 -35 -12 -55 -5 -31 -2 -38 11 -38 20 0 20 -13 1 -67 -11 -32
-12 -49 -4 -70 8 -22 7 -30 -5 -39 -21 -15 -21 -64 -1 -64 11 0 14 -7 11 -22
-20 -92 -25 -142 -22 -203 2 -38 -1 -76 -6 -82 -7 -9 -7 -18 2 -28 7 -8 10
-24 7 -36 -3 -11 -2 -44 3 -73 4 -28 4 -71 0 -96 -5 -25 -5 -47 -2 -50 7 -5 7
-66 -1 -160 -5 -69 0 -87 19 -63 13 17 13 17 14 -4 0 -12 -5 -25 -11 -28 -6
-4 -9 -27 -8 -52 2 -30 -1 -47 -11 -53 -12 -8 -13 -13 -3 -28 9 -14 9 -22 0
-31 -8 -8 -6 -14 6 -24 15 -10 16 -17 6 -45 -6 -18 -9 -44 -6 -58 2 -14 1 -62
-4 -106 -7 -57 -6 -84 2 -94 8 -9 9 -36 4 -81 -4 -38 -9 -106 -10 -153 -2 -47
-5 -90 -6 -95 -2 -6 1 -30 6 -55 5 -25 8 -49 7 -53 -2 -5 -5 -58 -7 -119 -4
-75 -2 -115 6 -124 9 -11 8 -14 -1 -14 -9 0 -11 -11 -6 -39 3 -23 2 -42 -4
-46 -15 -9 -12 -36 7 -57 16 -18 16 -19 -5 -25 -22 -5 -31 -23 -12 -23 9 0 7
-35 -6 -77 -3 -13 -2 -23 3 -23 11 0 11 -115 1 -126 -12 -11 -9 -64 3 -64 5 0
8 -4 5 -9 -10 -16 -15 -175 -6 -186 6 -7 5 -50 -1 -109 -7 -66 -7 -102 0 -109
7 -7 7 -16 0 -29 -7 -14 -7 -23 2 -34 8 -10 8 -14 0 -14 -6 0 -11 -7 -11 -15
0 -8 6 -15 13 -15 9 0 12 -18 9 -72 -3 -40 -8 -75 -11 -78 -4 -3 -7 -36 -7
-75 1 -50 5 -69 14 -67 14 2 16 -14 2 -23 -13 -8 -13 -135 0 -135 6 0 6 -10
-1 -27 -6 -15 -12 -55 -15 -88 -15 -202 -25 -275 -37 -276 -7 0 -23 -3 -37 -5
-36 -6 -266 -24 -325 -24 -27 -1 -104 2 -170 5 -188 8 -190 8 -388 4 -104 -3
-191 -1 -193 3 -3 5 -53 6 -112 2 -59 -3 -111 -6 -117 -5 -5 0 -48 3 -95 6
-47 3 -128 5 -180 5 -128 -1 -121 -1 -155 6 -16 3 -40 2 -53 -3 -13 -5 -58 -5
-100 -1 -85 8 -112 4 -112 -18 0 -16 -31 -19 -46 -4 -14 14 -122 20 -304 19
-80 -1 -253 0 -385 2 -287 4 -293 4 -565 1 -118 -1 -294 1 -390 5 -138 5 -792
8 -860 4 -8 -1 -53 1 -100 3 -246 14 -347 15 -377 5 -18 -6 -37 -8 -43 -4 -29
18 -713 22 -765 5 -28 -9 -39 -9 -55 3 -15 11 -44 13 -120 9 -62 -3 -123 0
-161 8 -45 10 -63 10 -72 1 -16 -16 -38 -14 -53 7 -12 16 -14 16 -37 -6 -19
-18 -32 -22 -58 -18 -65 11 -364 15 -409 5 -27 -6 -59 -22 -77 -39 -18 -17
-37 -30 -43 -30 -6 0 -15 -11 -20 -25 -11 -29 -39 -33 -75 -9 -13 8 -34 14
-47 12 -19 -3 -24 2 -28 32 -5 37 -8 38 -100 58 -50 10 -472 8 -489 -3 -6 -3
-9 -11 -6 -16 9 -14 -5 -11 -21 6 -17 16 -42 18 -269 21 -82 0 -159 1 -170 1
-11 1 -56 -1 -100 -3 -44 -1 -89 -2 -100 -2 -38 2 -340 6 -509 7 -118 1 -173
-2 -183 -11 -11 -9 -19 -9 -34 0 -13 8 -64 12 -152 12 -73 0 -215 0 -317 0
-250 2 -426 2 -478 1 -24 0 -55 4 -69 10 -17 6 -30 6 -37 0 -16 -13 -375 -20
-383 -8 -3 6 -63 6 -147 2 -77 -5 -148 -8 -156 -7 -8 1 -98 3 -200 5 -102 2
-187 5 -190 7 -3 1 -66 3 -140 4 -128 1 -135 2 -135 21 0 13 -8 21 -24 23 -20
3 -23 0 -18 -17 6 -24 15 -22 -144 -24 -58 -1 -102 -7 -111 -14 -11 -10 -23
-10 -52 -1 -29 9 -42 9 -57 0 -16 -10 -23 -10 -35 3 -9 8 -28 15 -44 15 -16 0
-41 5 -55 10 l-27 10 7 120 c4 82 3 120 -4 120 -17 0 -13 25 8 51 18 24 18 36
-1 76 -6 12 -8 42 -6 68 3 25 2 48 -3 51 -5 3 -6 16 -3 30 4 14 2 24 -5 24 -6
0 -11 7 -11 15 0 8 7 15 16 15 13 0 15 14 10 111 -3 61 -3 116 1 122 12 20 9
290 -4 332 -17 54 -16 82 3 89 13 5 14 9 4 21 -6 8 -9 18 -6 23 3 5 -3 21 -14
35 -25 31 -25 39 -2 35 15 -3 17 9 17 136 0 102 -3 140 -12 143 -7 3 -13 11
-13 19 0 8 6 11 15 8 12 -5 15 2 15 27 0 19 0 48 1 64 0 17 -4 77 -9 134 -6
63 -6 117 -1 135 5 17 9 69 9 116 -1 47 2 109 6 138 5 38 4 52 -6 52 -8 0 -10
8 -6 27 5 17 3 29 -6 35 -10 7 -9 11 4 22 15 11 16 15 3 33 -9 13 -13 36 -9
69 7 75 6 87 -7 95 -7 4 -9 17 -5 33 3 14 9 38 12 52 4 14 1 36 -6 48 -10 19
-9 28 1 47 16 30 19 118 8 224 -12 113 -13 145 -5 186 6 28 4 40 -10 54 -17
16 -17 18 0 27 15 8 16 12 5 19 -11 6 -11 11 -1 21 8 8 12 47 12 119 0 124 -7
169 -26 169 -8 0 -14 7 -14 15 0 8 5 15 10 15 6 0 10 -5 10 -11 0 -5 5 -7 11
-4 6 4 9 21 8 39 -2 17 0 37 4 43 4 7 3 20 -2 30 -5 10 -14 33 -20 51 -8 27
-7 32 6 32 13 0 15 10 10 64 -3 36 -2 67 4 73 6 6 4 22 -6 46 -8 21 -13 47
-10 60 4 13 2 35 -4 49 -9 23 -7 28 9 33 26 8 25 21 0 35 -11 6 -20 19 -20 30
0 16 5 19 28 15 15 -2 50 -7 77 -11z m-88 -1286 c-3 -8 -6 -5 -6 6 -1 11 2 17
5 13 3 -3 4 -12 1 -19z m12193 -797 c0 -5 -7 -14 -15 -21 -12 -10 -15 -10 -15
2 0 8 3 18 7 21 9 10 23 9 23 -2z m-12200 -121 c0 -5 -5 -10 -11 -10 -5 0 -7
5 -4 10 3 6 8 10 11 10 2 0 4 -4 4 -10z m16 -1187 c-10 -10 -19 5 -10 18 6 11
8 11 12 0 2 -7 1 -15 -2 -18z"/>
<path d="M1580 4255 c0 -10 7 -15 18 -13 21 4 19 22 -2 26 -10 2 -16 -3 -16
-13z"/>
<path d="M556 4205 c-20 -30 -43 -76 -52 -103 -8 -26 -18 -54 -21 -62 -5 -14
-12 -67 -12 -100 -3 -158 1 -170 70 -176 58 -6 79 7 61 37 -11 16 -11 23 -2
29 14 9 3 140 -11 140 -18 0 -8 28 12 33 20 5 21 11 17 71 -3 52 -1 66 10 66
9 0 12 6 8 16 -3 9 -6 36 -6 60 0 64 -27 60 -74 -11z"/>
<path d="M12044 4247 c-3 -9 0 -25 6 -38 8 -14 10 -40 6 -70 -4 -28 -3 -49 3
-49 15 0 19 -59 5 -78 -8 -9 -14 -27 -14 -39 0 -12 -4 -25 -10 -28 -5 -3 -10
-20 -10 -36 0 -16 -7 -41 -16 -54 -14 -21 -14 -30 -4 -55 7 -17 19 -30 26 -30
8 0 14 -7 14 -15 0 -30 31 -14 46 23 8 20 23 53 34 73 15 27 21 65 25 155 4
65 8 125 11 132 8 27 -9 102 -25 106 -56 17 -91 18 -97 3z"/>
<path d="M445 4241 c-7 -12 12 -24 25 -16 11 7 4 25 -10 25 -5 0 -11 -4 -15
-9z"/>
<path d="M2871 4239 c-57 -11 -62 -17 -48 -59 9 -25 19 -36 35 -38 17 -3 20
-7 13 -16 -6 -7 -7 -26 -1 -51 14 -60 15 -287 1 -312 -8 -16 -8 -41 -2 -88 5
-37 7 -73 4 -81 -3 -8 0 -20 5 -27 7 -8 7 -18 2 -27 -6 -9 -7 -84 -3 -180 13
-329 10 -418 -16 -483 -15 -39 -20 -62 -13 -69 5 -5 65 -10 133 -11 l124 -2 3
30 c1 20 -9 47 -30 80 -19 29 -33 65 -34 85 -1 19 -4 69 -7 110 -3 41 -2 79 0
84 3 4 6 87 7 185 2 143 6 182 19 206 9 17 17 37 17 46 0 25 51 42 91 32 33
-9 34 -11 37 -63 2 -30 8 -60 13 -67 11 -12 21 -249 22 -487 0 -102 -3 -132
-15 -140 -8 -6 -23 -26 -33 -43 -29 -50 -14 -57 129 -61 120 -4 122 -3 133 20
9 21 7 28 -24 57 -31 29 -34 37 -32 84 1 29 -3 70 -9 92 -11 42 -11 152 0 170
3 6 2 33 -3 60 -6 29 -7 101 -2 170 9 153 8 168 -9 235 -20 72 -63 120 -110
120 -71 -1 -108 -17 -157 -69 -26 -28 -53 -51 -60 -51 -7 0 -11 15 -11 38 1
20 1 148 0 285 l0 247 -62 -1 c-35 -1 -83 -5 -107 -10z m109 -380 c0 -6 -4 -7
-10 -4 -5 3 -10 11 -10 16 0 6 5 7 10 4 6 -3 10 -11 10 -16z"/>
<path d="M789 4222 c-9 -9 -19 -24 -22 -32 -4 -8 -18 -33 -32 -55 -13 -22 -24
-52 -25 -67 0 -16 -4 -28 -9 -28 -4 0 -6 -36 -4 -80 2 -56 -1 -91 -12 -117
-15 -36 -15 -37 12 -65 20 -20 36 -28 62 -28 20 0 41 4 47 8 12 7 11 252 0
271 -4 5 -2 12 4 16 5 3 10 22 10 41 0 19 4 34 9 34 4 0 11 21 15 46 9 67 -19
95 -55 56z"/>
<path d="M12275 4213 c-4 -15 -8 -36 -10 -46 -2 -10 1 -32 6 -50 6 -21 5 -33
-1 -35 -12 -4 -13 -62 -1 -81 6 -10 5 -24 -4 -41 -8 -15 -11 -37 -8 -49 3 -11
0 -28 -7 -36 -7 -9 -9 -26 -5 -46 5 -24 4 -30 -5 -24 -10 6 -12 0 -6 -26 3
-18 10 -37 15 -42 15 -15 51 17 63 56 6 20 17 42 25 48 7 6 13 19 13 29 0 9 3
20 7 24 10 10 20 255 12 311 -4 27 -8 30 -46 33 -39 3 -43 1 -48 -25z"/>
<path d="M1425 4190 c-11 -4 -93 -10 -181 -14 -124 -5 -163 -4 -166 5 -3 8 -9
9 -19 3 -8 -5 -34 -9 -58 -9 -41 0 -45 -3 -53 -30 -12 -41 -11 -255 1 -288 8
-21 17 -27 41 -27 24 0 30 4 30 20 0 12 7 35 16 52 9 17 14 41 12 53 -3 12 5
40 17 61 18 31 29 40 59 45 50 8 63 -7 70 -83 6 -65 15 -492 17 -752 0 -82 3
-155 6 -162 3 -8 15 -14 27 -15 18 0 17 -2 -6 -11 -25 -9 -34 -25 -28 -53 4
-21 -24 -102 -44 -123 -16 -18 -18 -27 -10 -40 15 -24 64 -32 182 -30 99 1
103 2 108 25 4 15 0 30 -10 42 -9 10 -16 21 -16 25 0 4 -8 20 -19 34 -16 24
-18 43 -16 159 2 73 -1 135 -5 138 -5 3 -7 42 -6 88 2 45 -2 88 -7 95 -7 9 -6
21 3 38 17 30 17 118 1 158 -9 23 -9 31 1 38 10 6 10 10 -2 18 -13 8 -13 10 2
10 14 0 16 6 10 33 -7 34 -7 45 0 167 4 60 1 77 -11 87 -12 9 -12 12 -3 13 10
0 12 8 7 30 -5 23 -3 30 9 30 9 0 16 7 16 15 0 17 43 37 63 29 29 -11 77 -109
81 -164 4 -60 21 -80 67 -80 27 0 28 2 29 53 0 28 1 70 2 92 5 86 -9 198 -26
210 -9 7 -48 13 -86 13 -39 1 -74 3 -78 6 -4 2 -16 0 -27 -4z"/>
<path d="M10308 4188 c-12 -9 -19 -40 -26 -103 -11 -111 -4 -135 39 -135 18 0
40 -7 50 -16 30 -27 50 19 56 124 6 111 -8 142 -66 142 -21 0 -44 -6 -53 -12z
m102 -162 c0 -3 -4 -8 -10 -11 -5 -3 -10 -1 -10 4 0 6 5 11 10 11 6 0 10 -2
10 -4z"/>
<path d="M5622 4178 c-23 -4 -47 -10 -54 -14 -6 -4 -26 -8 -44 -10 -54 -5 -77
-21 -69 -51 6 -24 4 -25 -26 -19 -24 5 -30 3 -26 -8 3 -8 -1 -20 -8 -26 -8 -7
-17 -27 -21 -46 -3 -19 -15 -46 -26 -60 -12 -14 -18 -33 -15 -45 3 -11 -1 -33
-10 -49 -23 -46 -38 -169 -24 -191 15 -26 14 -42 -4 -35 -8 3 -15 0 -15 -6 0
-6 -6 -19 -14 -27 -10 -12 -12 -29 -5 -71 4 -30 11 -97 14 -149 2 -51 9 -99
15 -106 5 -7 12 -45 15 -86 10 -139 16 -169 38 -207 12 -20 25 -38 29 -40 4
-2 8 -13 8 -24 0 -37 41 -79 109 -111 59 -27 76 -30 165 -31 70 0 101 3 104
12 2 6 11 12 20 12 10 0 28 9 42 20 24 18 25 23 25 141 1 109 -1 125 -19 143
-19 19 -19 19 -43 -8 -13 -16 -23 -40 -23 -59 0 -18 -7 -41 -15 -51 -8 -11
-15 -30 -15 -42 0 -45 -111 -84 -140 -49 -7 8 -21 15 -31 15 -11 0 -21 10 -25
25 -3 13 -12 29 -20 36 -8 6 -14 26 -14 43 0 17 -9 42 -20 56 -13 17 -20 41
-20 72 0 26 -5 59 -11 74 -15 41 -2 105 24 112 17 4 18 7 5 16 -10 8 -19 49
-27 134 -13 116 -12 124 5 136 16 12 17 19 7 51 -13 40 -6 99 28 240 13 54 25
84 39 94 11 7 20 22 20 32 0 11 11 24 25 31 14 6 25 15 25 19 0 14 63 -3 93
-25 15 -11 30 -32 34 -46 3 -14 10 -34 16 -45 6 -11 12 -31 13 -45 2 -13 10
-30 19 -36 8 -6 15 -16 15 -23 0 -18 25 -13 45 9 15 17 17 37 16 145 -2 138
-5 155 -30 155 -9 0 -21 4 -26 9 -14 12 -121 18 -173 9z m-222 -922 c0 -8 -4
-18 -10 -21 -5 -3 -10 3 -10 14 0 12 5 21 10 21 6 0 10 -6 10 -14z m-65 -55
c3 -5 1 -12 -5 -16 -5 -3 -10 1 -10 9 0 18 6 21 15 7z m95 -207 c0 -14 -3 -14
-15 -4 -8 7 -15 14 -15 16 0 2 7 4 15 4 8 0 15 -7 15 -16z"/>
<path d="M9865 4042 c-33 -8 -43 -32 -38 -97 2 -33 9 -70 15 -82 9 -18 6 -26
-20 -51 -16 -16 -33 -38 -36 -50 -4 -11 -13 -23 -21 -26 -25 -9 -18 -55 9 -66
14 -5 26 -20 31 -37 6 -24 6 -202 1 -453 -1 -57 1 -65 17 -62 9 2 17 -2 17 -8
0 -5 -4 -10 -10 -10 -5 0 -13 -12 -16 -27 -4 -16 -10 -33 -15 -38 -4 -6 -3
-44 3 -85 10 -66 17 -82 55 -130 25 -30 56 -60 70 -66 55 -24 128 11 200 97
19 22 23 35 18 59 -7 34 -14 35 -63 18 -29 -11 -35 -10 -43 5 -6 9 -21 17 -34
17 -21 0 -25 7 -34 53 -6 28 -10 96 -10 150 0 53 -2 100 -4 105 -2 4 -1 34 3
67 4 33 4 114 0 180 -6 110 -5 122 12 141 16 18 31 22 83 22 73 0 85 5 85 37
0 13 5 27 11 31 20 12 -50 34 -106 34 -82 0 -88 11 -83 142 4 92 2 110 -11
117 -25 13 -64 19 -86 13z"/>
<path d="M5820 3816 c0 -9 7 -16 16 -16 9 0 14 5 12 12 -6 18 -28 21 -28 4z"/>
<path d="M1852 3813 c-13 -3 -26 -11 -29 -19 -3 -8 -12 -14 -20 -14 -23 0 -83
-53 -83 -74 0 -10 -11 -29 -25 -42 -14 -13 -25 -33 -25 -45 0 -11 -6 -35 -14
-52 -18 -41 -33 -180 -30 -282 2 -44 3 -102 4 -130 2 -60 18 -141 36 -175 7
-14 15 -37 18 -51 8 -36 66 -107 94 -115 12 -3 22 -9 22 -13 0 -4 32 -16 72
-25 70 -17 72 -17 99 3 16 12 31 21 35 21 15 0 74 52 74 64 0 7 9 21 20 31 11
10 20 24 20 32 0 7 6 22 12 33 23 36 -16 74 -45 45 -9 -8 -19 -15 -22 -15 -4
0 -21 -11 -37 -25 -28 -24 -32 -25 -48 -10 -18 17 -37 5 -25 -15 15 -25 -46
-6 -82 25 -23 19 -46 35 -52 35 -6 0 -11 19 -11 43 0 24 -5 48 -11 54 -7 7
-12 51 -13 105 l-1 93 74 7 c41 4 79 4 85 -1 6 -5 39 -11 73 -15 46 -5 62 -4
65 6 4 10 8 10 22 -1 37 -31 71 51 53 129 -3 14 -11 61 -18 105 -6 44 -16 84
-20 90 -5 5 -9 17 -9 27 0 11 -16 43 -35 73 -33 51 -76 85 -110 85 -8 0 -15 5
-15 10 0 10 -53 11 -98 3z m69 -115 c21 -18 49 -64 49 -82 0 -7 7 -16 15 -20
12 -4 13 -10 3 -31 -9 -19 -9 -28 0 -37 15 -15 16 -92 2 -118 -6 -11 -26 -21
-49 -25 -49 -8 -151 11 -151 29 0 7 6 35 14 62 13 46 15 65 16 155 1 62 60
101 101 67z"/>
<path d="M2481 3807 c-6 -8 -23 -18 -36 -21 -13 -3 -27 -15 -30 -26 -3 -11
-10 -20 -15 -20 -5 0 -21 -20 -36 -45 -14 -25 -30 -45 -34 -45 -5 0 -14 -33
-20 -72 -7 -40 -17 -84 -22 -98 -13 -31 -12 -378 0 -393 5 -7 12 -35 15 -64 3
-29 12 -63 19 -75 14 -26 13 -22 23 -66 9 -36 49 -72 110 -98 50 -21 123 -12
176 21 36 23 119 121 119 141 0 5 -9 20 -20 34 l-19 25 -33 -32 c-29 -28 -41
-33 -93 -35 -52 -3 -60 -1 -63 16 -2 11 -12 27 -22 35 -9 9 -23 36 -30 61 -7
25 -16 47 -21 50 -9 6 -15 152 -6 166 3 5 2 50 -2 99 -5 50 -4 95 1 102 5 6 8
22 6 35 -9 73 34 182 79 199 29 11 63 -4 64 -29 0 -9 12 -41 27 -71 23 -45 34
-56 67 -67 22 -8 41 -14 43 -14 2 0 9 15 15 33 11 26 14 108 8 189 -2 27 -55
49 -140 58 -42 5 -85 12 -97 15 -12 4 -25 1 -33 -8z"/>
<path d="M4877 3803 c-21 -2 -41 -11 -44 -19 -3 -8 -19 -14 -37 -14 -30 -1
-76 -29 -76 -48 0 -5 -13 -12 -30 -15 -44 -9 -60 -48 -51 -124 4 -34 13 -69
20 -77 27 -33 90 13 91 64 0 14 9 43 20 65 11 22 20 45 20 51 0 28 79 33 103
6 10 -10 17 -23 17 -28 0 -6 11 -25 25 -44 20 -27 26 -47 26 -90 2 -135 1
-131 31 -137 31 -6 43 -18 33 -33 -5 -8 -11 -8 -19 -1 -15 13 -138 -10 -143
-26 -2 -5 -14 -8 -27 -6 -31 6 -127 -43 -133 -68 -3 -10 -10 -19 -17 -19 -14
0 -46 -56 -46 -80 0 -10 -4 -21 -9 -24 -24 -15 -29 -210 -7 -236 8 -8 19 -32
26 -53 22 -69 107 -99 160 -57 14 11 32 20 41 20 17 0 59 52 59 74 0 20 40 32
51 15 5 -8 9 -30 9 -50 0 -43 23 -62 84 -72 39 -6 106 13 106 31 0 5 -9 19
-19 31 -18 20 -31 76 -37 161 -6 67 -17 104 -38 122 -20 17 -19 19 14 22 8 0
13 8 11 16 -9 34 -5 92 6 102 15 12 6 69 -13 84 -12 10 -12 13 1 24 9 7 13 21
10 31 -3 9 -2 20 3 23 6 3 4 30 -4 63 -11 44 -11 63 -3 80 9 16 8 32 -5 69 -9
26 -16 55 -16 64 0 39 -94 113 -138 108 -9 -1 -34 -3 -55 -5z m63 -536 c0 -13
4 -27 9 -32 5 -6 11 -48 13 -95 2 -47 7 -93 12 -102 6 -13 2 -20 -17 -29 -14
-6 -29 -24 -34 -43 -6 -22 -21 -38 -51 -54 l-42 -23 -26 28 c-14 15 -31 41
-38 58 -17 39 -26 124 -15 131 5 3 9 15 9 27 0 12 14 39 30 59 18 22 28 43 24
52 -5 12 0 16 19 16 13 0 38 7 53 15 40 21 54 19 54 -8z"/>
<path d="M6266 3802 c-2 -4 -22 -7 -43 -5 -21 1 -55 -1 -77 -4 -36 -5 -38 -7
-32 -34 6 -32 4 -34 -23 -17 -20 12 -56 4 -46 -11 5 -8 -22 -66 -45 -96 -15
-20 -41 -158 -47 -250 -10 -149 -1 -309 19 -332 6 -8 11 -32 10 -54 -2 -22 2
-39 8 -39 5 0 10 -9 10 -21 0 -47 67 -133 124 -158 45 -21 116 -26 156 -12 14
5 37 12 51 15 27 6 86 79 105 131 47 128 54 155 54 206 0 32 -4 59 -9 61 -6 2
-6 21 -1 48 13 67 12 138 -2 143 -10 4 -9 8 2 16 11 7 14 29 14 83 -1 58 -7
88 -33 147 -17 41 -31 82 -31 93 0 10 -8 21 -17 24 -10 3 -25 10 -33 15 -8 5
-29 16 -47 24 -17 8 -34 19 -38 25 -7 12 -22 13 -29 2z m18 -144 c10 -24 22
-51 27 -60 6 -12 5 -25 -3 -37 -10 -16 -9 -23 6 -40 10 -11 16 -27 13 -35 -3
-8 -1 -16 5 -18 16 -6 27 -131 16 -180 -5 -23 -5 -45 -1 -49 21 -21 -25 -329
-49 -329 -4 0 -8 -5 -8 -12 0 -34 -68 -65 -85 -38 -3 6 -15 10 -26 10 -15 0
-19 7 -19 34 0 19 -4 38 -10 41 -5 3 -10 15 -10 25 0 10 -9 39 -20 65 -11 26
-17 52 -13 58 5 7 8 111 8 232 0 193 2 223 18 245 9 13 17 33 17 44 0 11 5 34
11 51 11 29 16 32 59 34 46 1 47 1 64 -41z m96 -718 c0 -5 -5 -10 -11 -10 -5
0 -7 5 -4 10 3 6 8 10 11 10 2 0 4 -4 4 -10z"/>
<path d="M10800 3792 c-48 -24 -105 -82 -113 -115 -4 -15 -10 -39 -13 -53 -4
-15 -16 -36 -26 -46 -16 -16 -18 -28 -13 -55 4 -24 2 -40 -8 -52 -22 -25 -32
-85 -22 -136 4 -16 6 -38 5 -47 -3 -57 -2 -79 4 -133 4 -33 10 -67 13 -75 3
-8 7 -38 8 -66 2 -28 8 -60 14 -72 6 -11 11 -36 11 -55 0 -29 5 -37 30 -47 17
-7 30 -18 30 -24 0 -7 25 -23 56 -36 60 -24 159 -29 210 -10 48 19 104 72 104
99 0 14 7 35 15 45 8 11 15 34 15 51 0 18 7 45 14 61 8 16 20 81 26 144 6 63
12 120 14 125 2 6 -3 49 -11 95 -7 47 -16 103 -20 125 -3 22 -10 43 -16 47 -5
3 -10 20 -9 37 0 20 -4 31 -13 31 -8 0 -11 7 -8 20 7 28 -53 114 -98 139 -47
27 -148 28 -199 3z m124 -111 c8 -9 30 -44 47 -76 l32 -60 2 -185 c1 -102 -2
-190 -6 -196 -5 -6 -5 -34 1 -63 8 -42 6 -58 -7 -87 -14 -28 -15 -39 -5 -54
10 -16 9 -21 -8 -30 -11 -6 -20 -19 -20 -30 0 -23 -5 -26 -53 -35 -35 -7 -40
-4 -83 39 -35 36 -44 51 -39 67 4 12 2 24 -3 28 -20 12 -19 415 1 439 8 10 8
19 0 31 -17 28 5 160 31 190 36 40 85 50 110 22z"/>
<path d="M3613 3786 c-28 -6 -55 -14 -59 -18 -7 -8 21 -74 36 -83 5 -3 7 -12
3 -20 -3 -9 0 -22 7 -29 6 -9 11 -46 11 -88 0 -40 0 -192 1 -338 0 -146 -1
-276 -3 -289 -2 -14 -16 -38 -31 -55 -32 -35 -33 -39 -14 -59 17 -16 161 -29
221 -18 35 6 40 9 37 31 -2 14 -10 32 -18 41 -8 8 -14 23 -14 32 0 9 -5 19
-10 22 -6 3 -10 36 -9 73 0 37 0 167 -1 289 -2 176 -5 225 -16 234 -18 15 -18
29 1 29 8 0 15 9 15 20 0 10 9 24 20 30 21 11 28 40 9 40 -5 0 -8 4 -4 10 3 5
12 7 19 4 7 -3 30 4 50 15 46 26 46 26 46 -7 0 -16 8 -32 20 -39 25 -17 30
-47 35 -248 7 -224 7 -206 2 -316 -3 -81 -8 -105 -30 -148 -35 -66 -35 -97 -1
-105 34 -9 220 -10 234 -1 13 8 2 54 -22 84 -12 16 -18 41 -18 75 -1 28 -7 74
-14 101 -9 31 -12 78 -8 126 3 53 1 78 -7 83 -9 6 -9 11 -1 21 7 9 13 66 15
141 2 106 5 128 19 136 11 6 15 16 11 29 -4 11 -2 19 4 19 6 0 11 6 11 14 0 7
14 19 31 26 34 14 66 3 86 -29 15 -23 36 -173 27 -194 -3 -8 -1 -25 5 -36 8
-13 8 -22 1 -26 -7 -4 -8 -47 -4 -123 10 -165 8 -235 -5 -260 -6 -11 -11 -33
-11 -48 0 -15 -9 -46 -20 -69 -24 -50 -18 -75 19 -76 80 -4 217 3 225 11 6 6
1 26 -13 54 -13 24 -21 50 -18 58 2 7 0 22 -6 32 -12 25 -17 87 -23 301 -3 94
-9 188 -14 209 -6 28 -5 45 4 57 14 21 3 154 -15 175 -5 6 -7 18 -5 25 3 8
-13 27 -39 47 -35 25 -54 32 -90 32 -44 0 -75 -16 -75 -38 0 -5 -13 -12 -30
-15 -21 -5 -31 -14 -36 -32 -6 -24 -7 -25 -35 -8 -15 9 -29 26 -31 37 -2 12
-15 27 -30 34 -16 7 -28 17 -28 23 0 5 -31 9 -70 9 -54 0 -74 -4 -88 -18 -10
-10 -26 -22 -36 -25 -11 -4 -15 -14 -12 -24 3 -10 -2 -27 -10 -38 -15 -20 -15
-20 -30 -1 -8 11 -14 29 -14 41 0 12 -9 31 -20 43 -23 25 -54 26 -137 8z m797
-676 c0 -5 -7 -10 -15 -10 -8 0 -15 5 -15 10 0 6 7 10 15 10 8 0 15 -4 15 -10z"/>
<path d="M7517 3785 c-38 -20 -97 -79 -97 -98 0 -8 -6 -19 -12 -25 -10 -8 -14
-1 -16 31 -4 63 -23 84 -81 92 -31 4 -64 2 -88 -6 -21 -6 -43 -13 -50 -15 -17
-4 -4 -46 20 -65 18 -15 19 -21 10 -58 -9 -32 -8 -41 2 -41 19 0 27 -63 27
-229 1 -108 -3 -153 -13 -170 -12 -19 -12 -23 4 -32 11 -7 15 -17 12 -32 -3
-12 -7 -93 -8 -179 -1 -86 -5 -159 -8 -163 -3 -3 -4 -59 -2 -125 5 -132 -5
-177 -44 -186 -13 -4 -29 -20 -38 -36 -14 -28 -13 -32 11 -64 l26 -34 123 0
c131 0 157 9 137 47 -41 78 -57 162 -53 278 3 93 16 114 61 107 22 -3 35 1 45
14 14 18 14 18 15 -3 0 -16 6 -23 19 -23 11 0 26 -3 35 -6 12 -4 16 0 16 15 0
18 3 20 19 11 16 -8 26 -4 53 18 69 56 103 125 112 225 3 27 9 54 15 60 5 7 7
30 5 52 -8 71 -6 143 6 164 8 15 8 32 0 59 -5 20 -10 66 -10 102 0 38 -9 94
-21 135 -28 91 -34 103 -72 147 -27 32 -40 38 -82 43 -34 3 -59 0 -78 -10z
m46 -164 c12 -11 20 -38 23 -77 3 -32 11 -72 17 -89 10 -25 14 -73 17 -170 0
-11 5 -30 12 -42 9 -19 8 -25 -13 -42 -21 -17 -22 -22 -11 -41 9 -14 9 -26 3
-39 -6 -10 -11 -31 -11 -47 -1 -82 -8 -110 -38 -172 -26 -51 -37 -57 -81 -42
-62 20 -86 72 -97 211 -11 139 -7 400 6 413 6 6 10 27 10 48 0 41 34 104 60
112 27 8 85 -5 103 -23z"/>
<path d="M8163 3790 c-56 -12 -94 -33 -135 -74 -56 -59 -68 -75 -68 -96 0 -12
-7 -34 -16 -51 -8 -16 -19 -69 -25 -117 -5 -48 -12 -94 -15 -102 -3 -8 -8 -48
-10 -88 -4 -59 -2 -78 11 -92 11 -12 13 -20 6 -25 -16 -9 -13 -67 4 -108 8
-20 15 -48 15 -62 0 -13 8 -30 18 -36 12 -7 17 -20 15 -33 -5 -26 58 -111 90
-121 91 -31 122 -34 184 -18 52 13 70 23 108 64 25 26 45 56 45 65 0 9 9 32
21 50 11 19 18 38 15 42 -3 5 4 56 15 113 22 113 30 263 16 293 -5 11 -11 49
-12 86 -2 37 -10 80 -18 96 -8 16 -18 47 -22 69 -4 25 -18 50 -39 70 -18 16
-35 38 -39 48 -4 12 -17 17 -41 17 -19 0 -38 5 -41 10 -7 11 -22 11 -82 0z
m64 -125 c12 -22 22 -50 22 -61 1 -12 8 -25 17 -28 12 -4 14 -14 9 -36 -5 -23
-3 -30 9 -30 19 0 19 -1 6 -34 -5 -14 -6 -28 -1 -30 15 -9 21 -111 10 -147
-16 -49 -12 -131 8 -146 15 -12 15 -14 1 -30 -22 -25 -29 -55 -18 -73 6 -9 5
-19 -3 -28 -6 -8 -10 -29 -8 -48 2 -28 -1 -34 -23 -40 -19 -4 -26 -13 -26 -29
0 -28 -24 -55 -50 -55 -20 0 -74 62 -90 104 -5 15 -10 42 -10 60 0 18 -3 36
-7 40 -7 7 -12 44 -14 111 -1 40 7 215 16 340 5 67 11 104 21 111 8 6 14 20
14 32 0 25 48 63 75 59 12 -1 29 -19 42 -42z"/>
<path d="M8968 3789 c-52 -8 -128 -61 -128 -89 0 -23 -26 -44 -44 -37 -12 5
-13 11 -3 36 8 21 8 39 1 58 -9 27 -13 28 -81 31 -70 3 -133 -15 -133 -37 0
-14 30 -69 45 -81 9 -8 15 -30 15 -56 0 -26 5 -44 11 -44 7 0 9 -9 5 -22 -6
-21 -13 -181 -20 -503 -3 -122 -11 -160 -40 -184 -23 -19 -22 -88 2 -93 9 -3
64 -2 122 0 122 5 145 17 134 66 -3 17 -14 40 -25 51 -21 24 -31 131 -32 370
0 145 3 203 18 292 8 43 36 83 59 83 19 0 55 -37 70 -74 13 -31 54 -56 90 -56
21 0 37 86 26 135 -6 25 -7 57 -4 70 6 26 -14 82 -31 88 -5 2 -31 0 -57 -4z"/>
<path d="M9325 3783 c-70 -25 -145 -67 -145 -80 0 -7 -11 -20 -25 -29 -18 -12
-25 -25 -25 -49 0 -27 -5 -34 -25 -39 -31 -8 -33 -26 -2 -26 16 0 22 -6 23
-25 3 -37 22 -55 60 -55 40 0 74 41 74 89 0 36 23 97 47 123 24 26 48 22 88
-14 29 -27 35 -40 35 -73 0 -23 4 -45 10 -51 5 -5 11 -50 13 -101 l3 -92 -34
-6 c-18 -3 -49 -15 -68 -26 -20 -11 -39 -17 -44 -14 -20 13 -140 -65 -140 -91
0 -6 -8 -14 -18 -16 -17 -5 -54 -99 -56 -143 -1 -11 -5 -25 -9 -32 -4 -7 0
-16 9 -21 13 -7 16 -19 11 -51 -3 -22 -1 -44 4 -47 5 -3 9 -18 9 -34 0 -16 5
-32 10 -35 6 -3 10 -14 10 -24 0 -19 38 -41 70 -41 10 0 22 -4 25 -10 3 -5 19
-10 35 -10 16 0 32 5 35 10 3 6 17 10 31 10 13 0 24 4 24 9 0 5 6 16 13 23 6
8 19 27 27 43 11 21 23 30 40 30 25 0 27 -4 16 -41 -10 -32 14 -53 78 -70 69
-18 100 -13 122 21 16 24 15 27 -11 65 -15 21 -29 54 -31 72 -1 18 -7 58 -12
88 -11 61 -4 195 10 223 6 12 6 23 -1 31 -7 8 -10 77 -10 182 2 187 -7 232
-52 288 -44 52 -141 70 -224 39z m103 -536 c14 -16 7 -238 -7 -247 -6 -3 -16
-23 -23 -45 -14 -42 -36 -53 -84 -41 -36 9 -64 73 -64 145 0 33 4 62 9 66 5 3
12 18 16 34 8 39 39 73 78 88 43 16 62 16 75 0z"/>
<path d="M10273 3786 c-58 -12 -74 -23 -49 -32 9 -3 16 -16 16 -29 0 -12 10
-29 23 -38 18 -12 22 -24 24 -73 3 -125 2 -431 -2 -471 -2 -23 -1 -45 4 -47 4
-3 4 -31 0 -63 -6 -41 -4 -60 4 -65 8 -5 5 -13 -11 -28 -12 -11 -22 -28 -22
-36 0 -9 -9 -27 -20 -41 -23 -30 -25 -43 -7 -66 9 -13 36 -18 118 -22 93 -6
108 -4 128 12 21 17 21 21 10 48 -7 17 -21 42 -32 57 -14 22 -16 32 -7 48 8
14 8 26 -1 42 -12 21 -23 169 -18 243 1 22 1 51 1 65 -1 14 -2 73 -2 132 0 81
-4 107 -14 111 -17 7 -10 42 14 73 13 18 15 35 9 97 -4 42 -10 81 -14 87 -8
13 -83 11 -152 -4z"/>
<path d="M11349 3793 c-20 -2 -44 -12 -53 -22 -16 -17 -15 -20 14 -49 16 -17
30 -37 30 -44 0 -8 7 -23 15 -34 17 -22 19 -66 4 -81 -13 -13 -16 -203 -3
-268 7 -34 6 -69 -2 -112 -6 -34 -8 -67 -3 -75 5 -7 2 -22 -8 -37 -13 -20 -13
-30 -3 -64 14 -48 -3 -135 -32 -155 -24 -17 -23 -58 2 -72 23 -12 241 -17 259
-5 16 9 5 57 -15 68 -8 4 -14 13 -14 20 0 7 -7 26 -16 42 -15 30 -18 63 -28
390 -2 61 0 126 4 145 5 19 14 62 21 95 14 68 38 101 80 110 46 10 66 -2 99
-62 26 -46 30 -62 25 -94 -4 -21 -11 -41 -15 -44 -13 -8 -2 -296 11 -312 8 -9
8 -25 1 -55 -7 -27 -7 -46 -1 -54 6 -7 4 -21 -5 -39 -8 -16 -18 -45 -21 -66
-4 -21 -13 -43 -21 -50 -8 -6 -14 -17 -14 -24 0 -7 -7 -15 -15 -19 -24 -9 -18
-20 23 -37 27 -12 66 -16 147 -15 l110 1 -2 33 c0 18 -9 42 -18 52 -12 13 -21
49 -27 107 -5 48 -15 98 -21 110 -7 16 -7 35 0 60 10 39 10 419 0 463 -3 14
-9 42 -12 63 -5 34 -9 37 -28 31 -22 -7 -22 -6 -4 14 23 25 20 30 -32 67 -36
24 -46 27 -88 21 -73 -11 -82 -15 -98 -47 -9 -16 -22 -29 -30 -29 -8 0 -15 -9
-15 -20 0 -11 -7 -21 -15 -21 -8 -1 -20 -2 -26 -3 -6 -1 -12 20 -14 47 -5 77
-18 83 -146 70z"/>
<path d="M6631 3751 c8 -34 23 -51 47 -51 15 0 15 -6 1 -31 -7 -15 -7 -24 1
-35 8 -9 12 -58 13 -138 0 -93 3 -126 13 -128 10 -2 9 -11 -2 -43 -11 -28 -17
-102 -21 -238 -5 -180 -8 -201 -25 -217 -11 -10 -21 -33 -21 -52 l-2 -33 108
-8 c59 -5 119 -6 132 -3 33 8 33 46 0 112 -20 40 -26 73 -33 179 -11 148 -8
328 6 427 7 47 18 77 37 102 32 42 70 49 80 14 17 -58 31 -79 62 -89 23 -7 38
-7 52 0 18 10 20 22 20 125 0 77 -4 117 -12 124 -7 5 -30 12 -52 15 -36 6 -46
2 -97 -36 -32 -23 -58 -50 -58 -59 0 -12 -8 -18 -24 -18 -22 0 -24 4 -24 45 0
70 -10 76 -117 73 l-92 -3 8 -34z m159 -116 c0 -8 -7 -15 -16 -15 -14 0 -14 3
-4 15 7 8 14 15 16 15 2 0 4 -7 4 -15z m-30 -216 c0 -11 -4 -17 -10 -14 -5 3
-10 15 -10 26 0 11 5 17 10 14 6 -3 10 -15 10 -26z m57 -105 c-3 -3 -12 -4
-19 -1 -8 3 -5 6 6 6 11 1 17 -2 13 -5z"/>
<path d="M6585 3740 c-3 -5 -1 -10 4 -10 6 0 11 5 11 10 0 6 -2 10 -4 10 -3 0
-8 -4 -11 -10z"/>
<path d="M7152 3579 c2 -6 8 -10 13 -10 5 0 11 4 13 10 2 6 -4 11 -13 11 -9 0
-15 -5 -13 -11z"/>
<path d="M5110 3550 c0 -5 7 -10 15 -10 8 0 15 5 15 10 0 6 -7 10 -15 10 -8 0
-15 -4 -15 -10z"/>
<path d="M9012 3358 c-7 -7 -12 -18 -12 -25 0 -11 5 -11 20 -3 11 6 20 17 20
25 0 18 -12 19 -28 3z"/>
<path d="M3515 2830 c4 -6 11 -8 16 -5 14 9 11 15 -7 15 -8 0 -12 -5 -9 -10z"/>
<path d="M4454 2679 c-12 -20 11 -30 41 -19 32 12 31 15 -7 24 -15 3 -30 1
-34 -5z"/>
<path d="M9165 2650 c3 -5 13 -10 21 -10 8 0 14 5 14 10 0 6 -9 10 -21 10 -11
0 -17 -4 -14 -10z"/>
<path d="M8620 2560 c0 -5 5 -10 10 -10 6 0 10 5 10 10 0 6 -4 10 -10 10 -5 0
-10 -4 -10 -10z"/>
<path d="M7722 1978 c-23 -28 -13 -88 14 -88 11 0 14 10 11 45 -5 52 -10 61
-25 43z"/>
<path d="M10192 1943 c2 -11 14 -19 31 -21 22 -3 27 1 27 17 0 17 -6 21 -31
21 -24 0 -30 -4 -27 -17z"/>
<path d="M560 1856 c0 -13 -7 -26 -15 -30 -10 -4 -15 -19 -15 -49 0 -35 -5
-48 -22 -59 -21 -14 -22 -23 -24 -147 -2 -119 -1 -134 17 -152 22 -22 94 -27
101 -6 6 14 3 60 -7 124 -4 28 -2 43 4 43 6 0 11 7 11 15 0 8 -4 15 -9 15 -5
0 -8 18 -7 39 0 22 5 39 11 38 5 -1 11 9 12 23 2 14 6 50 9 81 6 51 4 58 -17
73 -33 23 -49 20 -49 -8z"/>
<path d="M734 1835 c-8 -19 -19 -35 -25 -35 -7 0 -9 -11 -6 -27 3 -17 0 -31
-9 -38 -11 -7 -15 -43 -19 -140 -4 -126 -3 -131 21 -167 26 -37 60 -53 88 -42
17 6 37 83 25 99 -12 17 -4 244 9 257 7 7 12 33 12 60 0 37 -4 50 -19 58 -38
20 -61 12 -77 -25z"/>
<path d="M12221 1815 c-31 -69 -101 -88 -101 -27 0 34 -13 47 -57 56 -29 7
-33 4 -49 -30 -13 -27 -15 -43 -8 -63 9 -26 5 -76 -14 -181 -7 -37 -7 -57 0
-61 6 -4 2 -15 -11 -28 -29 -29 -26 -55 11 -86 31 -26 30 -35 -6 -48 -11 -4 1
-27 14 -27 17 0 90 123 90 152 0 33 21 78 44 97 9 8 16 17 16 22 0 13 -28 11
-32 -3 -3 -8 -9 -8 -24 0 -18 11 -18 12 4 18 23 6 25 15 26 89 l1 40 40 -4
c22 -1 43 -8 47 -14 12 -20 4 -106 -10 -112 -8 -3 -13 -17 -12 -32 5 -70 1
-83 -25 -83 -16 0 -25 -6 -25 -15 0 -8 3 -15 8 -15 10 0 32 -50 32 -72 0 -12
8 -18 25 -18 18 0 28 9 41 36 9 20 23 38 31 41 7 3 13 11 13 19 0 8 5 14 10
14 6 0 10 17 11 38 0 27 2 32 8 18 7 -18 8 -18 14 -2 12 29 8 43 -12 49 -14 3
-18 11 -14 25 4 18 10 20 37 15 33 -6 31 3 -6 21 -21 11 -23 17 -20 94 3 98
-7 122 -48 122 -25 0 -32 -6 -49 -45z"/>
<path d="M1800 1801 c-25 -22 -51 -40 -57 -41 -7 0 -13 -4 -13 -9 0 -5 -7 -16
-15 -25 -22 -22 -40 -123 -25 -141 8 -9 9 -29 5 -55 -5 -28 -3 -46 6 -56 7 -9
12 -32 10 -51 -1 -19 2 -39 7 -46 5 -7 12 -24 16 -39 9 -38 58 -118 72 -118 6
0 17 -7 24 -15 8 -9 30 -15 56 -15 40 0 47 4 74 42 16 22 30 47 30 55 0 8 11
25 24 40 22 24 24 33 25 157 1 72 -3 145 -8 161 -33 103 -63 151 -96 157 -11
2 -24 8 -30 15 -25 30 -59 24 -105 -16z m64 -96 c11 -8 30 -15 42 -15 33 0 46
-46 48 -167 1 -136 -10 -164 -72 -177 -37 -8 -47 -6 -70 11 -22 16 -26 27 -24
55 2 18 -4 47 -12 63 -18 35 -21 71 -5 80 5 4 8 14 6 23 -2 10 5 34 15 54 10
21 18 46 18 56 0 35 22 41 54 17z"/>
<path d="M1420 1816 c0 -9 -4 -16 -10 -16 -16 0 -12 -37 5 -44 8 -3 15 -16 15
-29 0 -13 5 -28 11 -34 8 -8 11 -75 10 -210 -1 -109 -2 -207 -1 -218 1 -11 3
-45 4 -75 1 -30 7 -64 13 -75 9 -17 7 -24 -13 -44 -16 -15 -30 -20 -44 -16
-20 6 -29 35 -10 35 16 0 12 30 -5 36 -8 4 -15 12 -15 20 0 7 -9 20 -21 28
-12 8 -18 19 -14 26 4 6 2 16 -3 23 -6 7 -13 33 -17 60 -4 27 -14 51 -23 56
-9 5 -17 18 -18 28 -4 73 -4 75 -19 69 -17 -6 -21 14 -5 30 5 5 6 15 0 23 -7
12 -11 12 -24 2 -9 -8 -16 -9 -16 -3 0 6 6 12 13 15 9 3 9 9 -2 30 -7 14 -11
35 -8 47 5 20 -16 74 -34 85 -5 4 -9 19 -9 35 0 44 -17 79 -44 90 -13 5 -27
14 -31 19 -3 6 -40 11 -86 11 -69 0 -79 -2 -79 -18 0 -10 7 -28 16 -40 22 -32
44 -177 37 -250 -3 -34 -9 -62 -13 -62 -4 0 -3 -21 2 -47 5 -27 11 -154 13
-283 3 -129 5 -264 6 -300 2 -103 2 -101 -26 -94 -19 5 -25 2 -25 -9 0 -10 11
-17 28 -19 38 -4 41 -50 7 -122 -16 -34 -25 -68 -23 -88 l3 -33 83 -14 c77
-13 83 -13 102 4 l20 18 -24 26 c-35 39 -39 67 -43 296 -2 116 -5 235 -5 265
-4 154 2 230 17 230 8 0 24 5 35 12 10 7 23 9 27 4 4 -4 0 -12 -10 -17 -12 -7
-15 -15 -8 -27 5 -9 12 -40 16 -69 4 -28 13 -54 20 -57 8 -3 11 -13 8 -24 -2
-11 0 -23 6 -26 6 -4 11 -22 11 -40 0 -19 7 -39 15 -46 8 -7 15 -20 15 -30 0
-10 7 -20 15 -24 11 -4 14 -13 9 -30 -3 -13 -1 -34 6 -45 9 -17 8 -22 -5 -27
-21 -8 -19 -31 4 -37 34 -9 68 -99 87 -234 6 -37 10 -43 30 -43 27 0 31 -12 9
-30 -22 -18 -19 -28 13 -44 18 -9 45 -12 79 -9 47 5 53 8 58 34 4 16 4 33 0
39 -4 6 0 22 9 35 14 21 14 29 -5 89 -15 48 -18 70 -10 79 12 16 11 126 -1
134 -5 3 -6 24 -2 47 4 22 9 88 10 146 2 58 4 112 4 120 0 8 -2 53 -5 100 -3
47 -5 137 -4 200 1 63 1 138 0 166 -1 35 4 55 14 64 8 7 15 22 15 34 0 12 5
27 11 33 16 16 3 48 -24 60 -12 5 -50 11 -84 12 -51 2 -63 -1 -63 -13z m-305
-413 c3 -16 10 -40 14 -55 12 -35 -1 -44 -39 -28 -26 11 -28 16 -23 44 12 66
38 87 48 39z m350 -413 c-3 -5 -12 -10 -18 -10 -7 0 -6 4 3 10 19 12 23 12 15
0z m3 -78 c2 -15 -2 -22 -12 -22 -11 0 -16 9 -16 26 0 31 23 28 28 -4z"/>
<path d="M3855 1820 c-56 -6 -89 -19 -189 -71 -35 -19 -38 -23 -33 -54 3 -19
0 -41 -7 -51 -8 -13 -11 -43 -8 -90 4 -63 7 -73 28 -85 21 -11 30 -10 59 4 39
18 56 52 54 101 -4 57 12 114 34 129 24 15 93 12 115 -5 6 -6 12 -25 12 -42 0
-18 5 -37 11 -43 5 -5 12 -39 14 -74 2 -34 7 -80 10 -100 4 -21 2 -46 -4 -57
-6 -11 -13 -46 -17 -78 -3 -33 -12 -66 -19 -74 -9 -10 -11 -20 -4 -32 7 -13 5
-20 -11 -28 -11 -6 -20 -17 -20 -25 0 -8 -9 -19 -20 -25 -14 -7 -20 -21 -20
-44 0 -19 -7 -39 -15 -46 -8 -7 -15 -21 -15 -31 0 -10 -9 -33 -20 -51 -11 -18
-20 -40 -20 -49 0 -9 -7 -23 -16 -30 -26 -22 -54 -96 -54 -144 0 -30 -5 -47
-16 -53 -20 -11 -36 -72 -39 -142 -1 -30 -5 -62 -9 -71 -4 -10 -2 -20 6 -25
18 -11 286 -6 309 6 11 7 20 7 24 0 3 -5 38 -9 78 -7 l72 2 1 50 c1 28 5 101
9 162 7 101 6 113 -9 119 -21 8 -54 -20 -58 -49 -4 -29 -50 -45 -88 -30 -26
10 -32 9 -40 -8 -8 -14 -20 -18 -50 -17 -35 1 -40 4 -40 25 0 19 -5 23 -32 23
-39 0 -76 19 -43 21 11 1 23 1 28 0 4 0 7 5 7 13 0 7 7 19 15 26 8 7 15 25 15
40 0 15 7 33 15 40 8 7 15 20 15 30 0 10 11 25 25 34 14 9 25 23 25 30 0 8 14
40 30 71 17 31 30 65 30 76 0 10 14 34 31 54 56 63 90 150 95 238 2 43 6 82 9
87 2 4 -3 22 -11 40 -12 23 -13 35 -5 43 14 14 15 64 1 72 -5 3 -10 14 -10 23
0 9 -12 41 -27 71 -28 55 -71 91 -108 91 -12 0 -25 4 -30 8 -6 4 -37 5 -70 2z"/>
<path d="M6090 1807 c-67 -23 -120 -56 -114 -71 3 -9 -5 -21 -20 -31 -14 -9
-28 -25 -31 -35 -3 -10 -14 -20 -24 -23 -15 -4 -17 -13 -13 -66 2 -33 0 -67
-5 -74 -9 -11 -9 -42 0 -188 2 -20 7 -43 12 -50 6 -8 18 -30 29 -50 10 -20 29
-42 42 -49 29 -16 31 -36 4 -50 -11 -6 -20 -15 -20 -21 0 -6 -10 -25 -23 -42
-12 -18 -23 -36 -23 -42 0 -5 -6 -23 -13 -39 -29 -70 -34 -210 -9 -259 6 -12
6 -23 -1 -31 -11 -13 -4 -43 26 -113 7 -17 13 -34 13 -37 0 -11 35 -46 46 -46
7 0 14 -10 18 -22 3 -13 19 -29 38 -37 18 -8 38 -22 45 -30 10 -13 15 -14 32
-3 27 16 31 15 31 -3 0 -17 16 -20 25 -5 3 6 15 10 26 10 11 0 37 11 59 25 22
14 42 25 45 25 10 0 45 40 45 51 0 6 12 20 26 31 18 15 24 28 22 48 -1 15 4
35 12 44 9 12 14 48 14 119 1 56 4 107 7 112 9 15 -2 95 -12 95 -5 0 -9 9 -9
21 0 11 -8 33 -17 47 -32 48 -43 67 -48 80 -3 6 -8 20 -12 30 -4 9 -7 32 -7
49 -1 24 3 33 16 33 18 0 58 61 58 89 0 9 4 21 9 27 12 12 19 173 8 177 -5 1
-3 14 3 29 11 22 9 33 -9 70 -11 25 -21 55 -21 69 -1 29 -62 99 -109 123 -43
23 -126 29 -171 13z m113 -114 c4 -2 7 -26 7 -54 0 -29 4 -49 11 -49 7 0 9 -9
6 -21 -4 -15 0 -23 14 -26 21 -6 25 -19 7 -25 -7 -3 -9 -11 -4 -24 12 -27 10
-104 -3 -137 -6 -16 -11 -48 -11 -71 0 -39 -5 -48 -46 -86 l-46 -42 -29 31
c-16 18 -29 40 -29 50 0 9 -5 22 -11 28 -12 12 -17 36 -26 113 -3 25 -9 50
-14 56 -5 7 -4 24 2 44 9 25 9 37 0 52 -9 15 -8 20 5 25 12 4 14 14 10 37 -5
26 0 40 25 75 32 42 33 43 78 36 25 -4 49 -9 54 -12z m87 -583 c0 -5 -4 -10
-10 -10 -5 0 -10 5 -10 10 0 6 5 10 10 10 6 0 10 -4 10 -10z m-139 -32 c1 -7
1 -19 0 -25 -1 -7 6 -13 15 -13 11 0 14 5 10 16 -11 28 17 9 36 -24 28 -51 58
-335 36 -348 -4 -3 -5 -18 -2 -33 7 -36 -10 -69 -42 -81 -22 -9 -23 -12 -13
-32 10 -18 8 -24 -7 -35 -27 -20 -50 -16 -68 12 -9 14 -25 25 -35 25 -27 0
-33 45 -35 251 -1 156 1 179 17 196 9 11 17 33 17 49 0 20 7 33 23 40 31 16
47 16 48 2z m189 -230 c0 -19 -2 -20 -10 -8 -13 19 -13 30 0 30 6 0 10 -10 10
-22z"/>
<path d="M6215 859 c-4 -6 -5 -13 -2 -16 7 -7 27 6 27 18 0 12 -17 12 -25 -2z"/>
<path d="M8397 1813 c-4 -3 -33 -10 -64 -14 -31 -4 -75 -17 -97 -28 -23 -11
-53 -25 -68 -30 -22 -8 -28 -19 -37 -68 -6 -32 -18 -71 -26 -87 -12 -21 -13
-32 -4 -42 6 -7 9 -30 7 -51 -3 -34 0 -38 29 -46 69 -20 82 -7 119 133 9 36
23 72 31 81 7 8 13 21 13 29 0 21 68 4 90 -22 21 -26 40 -102 40 -163 0 -22 1
-67 1 -100 0 -88 -41 -242 -70 -259 -5 -3 -12 -29 -16 -57 -4 -28 -13 -53 -20
-55 -7 -3 -15 -19 -19 -35 -3 -17 -15 -42 -26 -56 -11 -14 -20 -37 -20 -51 0
-14 -6 -33 -14 -41 -15 -18 -76 -179 -76 -202 0 -8 -6 -21 -12 -28 -7 -6 -13
-24 -14 -39 0 -15 -7 -49 -15 -75 -12 -45 -12 -50 4 -62 9 -7 17 -17 17 -23 0
-6 10 -14 23 -18 12 -3 29 -13 39 -21 14 -13 22 -12 62 1 26 9 59 16 74 16 16
0 32 4 38 8 9 9 133 0 170 -13 15 -4 29 0 48 17 27 22 27 26 31 148 2 69 5
130 6 135 2 6 -2 25 -9 43 -8 23 -16 31 -24 26 -29 -16 -48 -38 -48 -56 0 -11
-11 -23 -27 -29 -16 -6 -36 -15 -45 -20 -10 -5 -31 -9 -47 -9 -16 0 -42 -5
-57 -10 -19 -8 -30 -8 -38 0 -5 5 -20 10 -32 10 -12 0 -24 6 -27 13 -6 17 19
83 42 113 10 13 22 39 25 58 4 22 14 37 26 41 11 4 20 14 20 23 0 22 39 102
67 135 13 16 23 39 23 52 0 14 9 29 20 35 11 6 20 20 20 30 0 11 5 20 10 20 6
0 10 8 10 18 0 9 9 32 20 50 11 18 20 50 20 72 0 21 5 42 10 45 6 3 10 23 10
44 0 20 5 42 12 49 9 9 9 15 0 24 -7 7 -12 39 -12 74 0 76 -12 113 -63 192
-36 55 -44 62 -73 62 -18 0 -36 5 -39 10 -7 11 -28 13 -38 3z m-157 -1403 c0
-5 -4 -10 -10 -10 -5 0 -10 5 -10 10 0 6 5 10 10 10 6 0 10 -4 10 -10z"/>
<path d="M4436 1796 c-15 -9 -34 -16 -40 -16 -7 0 -26 -13 -42 -30 -16 -16
-35 -30 -41 -30 -7 0 -13 -3 -14 -7 -8 -78 -4 -184 7 -212 12 -29 17 -32 41
-26 15 3 32 14 39 23 16 21 27 68 20 81 -4 5 -2 12 4 16 5 3 10 15 10 26 0 34
29 79 50 79 11 0 20 4 20 9 0 5 14 9 30 9 34 -1 70 -41 70 -78 0 -27 25 -77
42 -83 10 -3 10 -9 -1 -28 -9 -15 -15 -62 -17 -128 -3 -79 -7 -108 -20 -122
-9 -10 -14 -25 -11 -33 3 -8 -1 -20 -9 -26 -8 -7 -14 -20 -14 -30 0 -9 -9 -25
-20 -35 -15 -14 -19 -26 -14 -49 4 -25 0 -36 -20 -55 -14 -14 -26 -35 -26 -47
0 -13 -4 -25 -9 -29 -12 -7 -41 -64 -41 -79 0 -6 -10 -27 -22 -46 -12 -19 -21
-46 -19 -58 2 -14 -6 -32 -18 -43 -15 -14 -21 -32 -21 -64 0 -25 -4 -45 -10
-45 -5 0 -10 -11 -10 -25 0 -29 -35 -109 -56 -126 -8 -6 -14 -16 -14 -22 0 -7
4 -7 12 1 20 20 31 14 24 -14 l-7 -26 152 5 c83 2 173 0 199 -4 25 -4 71 -4
100 -1 l54 7 4 115 c2 63 4 129 5 146 1 45 -10 64 -36 64 -18 0 -28 -10 -42
-40 -11 -25 -26 -42 -39 -45 -35 -6 -120 -17 -131 -16 -116 14 -115 14 -94 54
7 11 18 43 25 69 6 26 26 65 43 87 17 21 31 49 31 61 0 13 10 33 23 46 62 65
65 71 78 140 6 32 17 63 24 69 7 5 21 33 31 60 9 28 22 55 26 62 10 13 41 139
39 163 -4 97 -20 193 -34 208 -10 10 -17 28 -17 39 0 22 -17 38 -67 66 -47 26
-188 34 -227 13z"/>
<path d="M5178 1804 c-4 -3 -12 -6 -20 -8 -41 -6 -116 -45 -146 -73 -33 -32
-34 -37 -34 -106 0 -125 0 -125 30 -141 25 -13 29 -13 48 7 24 25 44 78 44
116 0 15 7 37 16 50 11 16 13 25 6 30 -6 4 -7 12 -3 20 5 7 13 11 19 7 6 -3
13 -2 17 4 10 15 35 12 35 -5 0 -17 16 -20 25 -5 11 18 24 11 39 -22 22 -50
27 -85 27 -188 1 -123 -14 -186 -55 -227 -17 -18 -36 -33 -42 -33 -6 0 -19 -9
-29 -20 -10 -11 -26 -20 -35 -20 -29 0 -52 -34 -44 -66 10 -43 22 -54 52 -48
52 10 152 -50 152 -91 0 -12 3 -25 6 -28 9 -9 16 -73 15 -136 0 -30 4 -60 10
-67 6 -8 7 -23 3 -36 -4 -13 -6 -37 -5 -55 1 -17 -5 -38 -14 -46 -8 -9 -15
-20 -15 -26 0 -6 -9 -15 -20 -21 -11 -6 -20 -19 -20 -29 0 -12 -10 -21 -27
-26 -24 -6 -33 -1 -70 39 -37 41 -42 54 -48 111 -4 35 -5 71 -2 79 10 24 -7
26 -41 5 -18 -10 -40 -19 -49 -19 -24 0 -42 -31 -43 -71 0 -38 25 -99 41 -99
5 0 0 -9 -11 -20 -26 -26 -25 -34 5 -54 14 -9 25 -23 25 -30 0 -9 17 -17 50
-21 34 -5 54 -13 60 -26 9 -15 18 -18 58 -13 93 11 189 54 198 89 3 14 16 33
28 43 12 9 30 44 40 77 9 33 22 68 27 78 7 13 6 30 -2 54 -6 19 -9 55 -6 80 2
24 1 57 -4 71 -4 15 -13 54 -20 87 -15 71 -39 110 -74 119 -21 5 -24 11 -19
35 4 21 2 30 -11 35 -9 3 -21 4 -26 0 -24 -14 -5 34 21 56 39 32 90 113 90
143 0 13 4 27 10 33 5 5 10 50 11 99 1 115 0 137 -13 152 -6 7 -7 20 -4 29 4
11 -1 18 -14 21 -11 3 -20 10 -20 15 0 20 -66 79 -100 88 -38 11 -113 13 -122
4z"/>
<path d="M9365 1800 c-4 -6 -10 -8 -15 -5 -4 3 -25 -18 -46 -45 -21 -27 -45
-52 -55 -55 -9 -3 -21 -17 -27 -30 -7 -14 -23 -30 -37 -35 -14 -5 -25 -16 -25
-24 0 -8 -9 -21 -21 -29 -32 -23 -69 -79 -69 -104 0 -13 -7 -37 -15 -54 -14
-26 -14 -30 0 -35 9 -4 24 1 34 10 10 9 25 16 34 16 20 0 31 16 17 25 -22 13
2 34 45 39 6 1 14 7 18 14 4 6 12 12 16 12 14 0 32 -52 25 -74 -4 -11 -7 -37
-6 -56 7 -160 7 -339 0 -359 -5 -15 -5 -28 2 -35 13 -13 13 -96 0 -96 -13 0
-13 -47 0 -55 6 -4 8 -11 4 -16 -3 -5 -1 -16 6 -24 8 -10 8 -19 -2 -34 -10
-17 -10 -25 0 -41 14 -24 6 -98 -14 -118 -7 -7 -16 -28 -20 -46 -5 -31 -10
-35 -50 -41 -56 -8 -75 -26 -65 -62 6 -21 17 -30 45 -38 20 -6 41 -17 45 -24
6 -10 10 -9 15 4 4 12 16 16 44 14 21 -2 42 0 47 3 18 11 188 8 201 -3 10 -8
22 -6 46 8 61 35 44 84 -36 104 -69 17 -84 63 -86 259 -3 334 3 593 16 643 4
16 2 33 -5 41 -12 14 -6 86 9 116 9 18 -18 210 -32 228 -13 15 -34 16 -43 2z"/>
<path d="M11546 1803 c-10 -3 -41 -19 -68 -35 -36 -23 -46 -33 -36 -39 11 -7
10 -11 -2 -19 -8 -5 -20 -10 -26 -10 -16 0 -44 -45 -44 -68 0 -10 -9 -27 -20
-37 -13 -12 -18 -25 -14 -41 4 -14 -2 -33 -16 -51 -19 -27 -20 -33 -9 -76 11
-41 11 -48 -5 -65 -14 -16 -16 -30 -10 -71 5 -43 11 -52 30 -57 28 -7 31 -19
8 -28 -14 -5 -16 -15 -9 -59 4 -28 6 -63 6 -76 -1 -29 15 -50 46 -62 13 -5 23
-15 23 -23 0 -8 9 -17 19 -21 11 -3 23 -15 26 -26 4 -10 10 -19 15 -19 4 0 10
-9 13 -21 6 -23 32 -21 32 2 0 17 117 83 161 91 28 5 30 -36 3 -61 -19 -18
-20 -21 -6 -21 19 0 24 -35 6 -45 -6 -4 -8 -13 -5 -21 3 -7 0 -16 -5 -20 -6
-3 -8 -15 -5 -27 8 -30 -23 -140 -45 -159 -10 -9 -19 -23 -19 -31 0 -19 -56
-61 -102 -76 -32 -10 -39 -19 -53 -62 -16 -46 -16 -52 -1 -75 9 -13 14 -29 11
-34 -10 -16 2 -12 21 8 10 9 36 23 58 29 50 15 56 16 56 3 0 -11 -38 -29 -85
-39 -37 -8 -41 -37 -5 -33 14 1 49 14 78 29 43 22 57 35 74 72 11 26 37 63 59
83 21 21 39 42 39 47 0 5 18 45 39 88 64 128 87 284 82 552 -2 104 1 125 14
135 15 11 15 13 1 25 -9 8 -16 28 -16 46 0 17 -3 35 -7 38 -6 7 -11 30 -17 92
-4 44 -17 87 -32 110 -8 11 -14 26 -14 34 0 8 -23 36 -52 62 -41 37 -62 49
-98 54 -25 3 -52 8 -60 9 -8 2 -24 1 -34 -1z m82 -139 c18 -20 32 -46 32 -59
0 -13 4 -26 9 -29 5 -3 7 -15 4 -26 -3 -11 -1 -26 4 -33 5 -6 10 -34 11 -61 1
-27 5 -58 8 -69 5 -16 3 -19 -10 -14 -27 11 -30 -19 -5 -63 19 -33 21 -43 10
-49 -9 -6 -11 -20 -6 -48 13 -77 -34 -142 -107 -150 -41 -4 -44 -2 -70 36 -16
21 -28 49 -28 62 0 12 -7 30 -16 40 -11 12 -14 24 -8 36 4 10 8 77 9 148 2
149 12 206 44 258 41 67 73 73 119 21z m212 -253 c0 -6 -4 -13 -10 -16 -5 -3
-10 1 -10 9 0 9 5 16 10 16 6 0 10 -4 10 -9z m-155 -391 c3 -5 -1 -10 -9 -10
-9 0 -16 5 -16 10 0 6 4 10 9 10 6 0 13 -4 16 -10z"/>
<path d="M6695 1790 c-3 -5 -15 -10 -25 -10 -20 0 -84 -39 -111 -69 -19 -21
-36 -186 -19 -196 5 -3 10 -15 10 -25 0 -12 10 -21 29 -25 37 -8 71 9 71 35 0
32 31 114 47 127 9 7 21 10 27 7 6 -3 0 3 -13 14 -29 23 -23 53 8 45 15 -4 21
-1 21 11 0 9 8 16 20 16 18 0 23 -10 19 -37 -1 -5 -5 -7 -9 -6 -11 3 -19 -33
-10 -47 12 -20 40 -3 40 24 0 24 29 46 31 23 11 -121 17 -173 23 -207 5 -22 1
-51 -8 -79 -9 -24 -16 -57 -16 -74 0 -41 -18 -102 -47 -165 -14 -29 -25 -64
-25 -77 0 -15 -9 -30 -19 -36 -14 -7 -19 -21 -19 -50 0 -25 -5 -42 -14 -45 -8
-3 -26 -40 -41 -82 -15 -42 -32 -81 -36 -87 -5 -5 -9 -17 -9 -27 0 -9 -6 -21
-14 -25 -7 -4 -16 -26 -19 -48 -13 -95 -29 -161 -42 -176 -19 -20 -19 -29 1
-57 12 -18 19 -20 35 -11 14 7 30 7 52 0 26 -9 187 -14 287 -10 14 0 37 -2 53
-6 21 -6 27 -4 27 8 0 9 8 22 18 29 20 14 30 75 36 207 2 47 -2 69 -14 84 -22
26 -51 11 -69 -36 -13 -33 -17 -35 -75 -42 -97 -11 -159 -7 -169 10 -5 10 -16
14 -28 10 -26 -9 -26 26 1 43 11 7 20 19 20 28 0 9 9 27 20 41 11 14 20 31 20
38 0 7 7 18 15 25 8 7 24 31 35 54 11 22 33 59 50 81 16 22 28 45 25 52 -2 6
7 24 21 40 13 15 24 35 24 43 0 26 24 84 48 117 12 17 22 35 21 40 -1 4 0 15
4 23 10 26 29 134 29 165 0 72 -19 183 -36 204 -6 8 -15 27 -21 44 -6 19 -25
38 -53 53 -36 20 -56 24 -132 24 -49 0 -92 -4 -95 -10z"/>
<path d="M7502 1784 c-4 -6 -15 -13 -24 -17 -20 -7 -29 -63 -27 -162 1 -38 -1
-90 -4 -115 -8 -72 1 -100 33 -100 26 0 50 30 50 64 0 41 47 96 80 94 69 -4
180 4 175 12 -3 6 -1 10 4 10 6 0 11 -4 11 -9 0 -5 11 -12 25 -15 28 -7 31
-22 10 -50 -8 -11 -15 -33 -15 -48 0 -16 -5 -50 -11 -75 -10 -37 -9 -47 2 -54
11 -7 10 -12 -8 -24 -13 -9 -23 -25 -23 -35 0 -10 -4 -22 -10 -25 -5 -3 -10
-23 -10 -43 0 -20 -7 -46 -15 -56 -8 -11 -15 -32 -15 -47 0 -15 -5 -31 -11
-35 -6 -3 -8 -16 -5 -28 3 -13 -1 -31 -9 -42 -8 -10 -15 -36 -15 -56 0 -21 -4
-38 -9 -38 -5 0 -12 -21 -16 -47 -4 -27 -15 -74 -26 -105 -10 -32 -19 -68 -19
-80 0 -13 -7 -34 -16 -46 -9 -13 -14 -32 -11 -44 4 -14 0 -22 -14 -25 -15 -4
-18 -11 -13 -27 9 -29 9 -28 0 -55 -11 -32 25 -60 75 -61 45 0 69 25 69 73 0
20 4 38 9 41 4 3 11 22 14 43 19 125 39 230 47 245 6 10 10 34 10 53 0 19 4
35 10 35 5 0 12 17 15 38 4 20 13 54 21 74 7 20 13 52 13 70 -1 18 10 74 24
123 14 50 29 113 33 140 4 28 11 61 16 75 13 35 28 114 34 185 3 33 12 72 19
87 13 27 10 74 -8 96 -5 6 -21 12 -36 11 -14 0 -70 2 -125 5 -91 4 -99 3 -103
-15 -6 -22 -33 -26 -33 -4 0 17 2 17 -91 19 -41 0 -74 -4 -77 -10z"/>
<path d="M10002 1755 c-16 -23 -35 -60 -42 -81 -7 -22 -19 -53 -27 -71 -7 -17
-13 -35 -12 -40 5 -27 -3 -64 -16 -77 -8 -8 -15 -28 -15 -45 0 -16 -4 -33 -10
-36 -5 -3 -10 -15 -10 -26 0 -11 -7 -22 -15 -25 -8 -4 -15 -16 -15 -29 0 -12
-6 -28 -14 -34 -13 -11 -20 -31 -43 -131 -3 -14 -19 -40 -35 -59 -21 -23 -28
-40 -24 -56 4 -15 -2 -32 -19 -51 -14 -16 -22 -36 -20 -45 3 -10 -1 -19 -10
-23 -9 -3 -13 -11 -9 -17 4 -7 8 -21 8 -33 1 -12 6 -38 10 -59 7 -30 12 -37
25 -31 17 8 117 24 141 24 8 -1 31 -1 50 -1 19 0 44 -7 55 -17 19 -15 21 -27
19 -116 -1 -55 -7 -103 -13 -109 -6 -6 -11 -19 -11 -29 0 -10 -7 -30 -16 -44
-13 -19 -15 -34 -8 -67 8 -36 13 -42 37 -45 16 -2 35 3 44 10 13 10 17 10 20
1 3 -7 11 -13 18 -13 8 0 20 -8 27 -19 19 -27 74 -17 82 15 4 13 15 28 26 34
27 14 25 44 -4 83 -15 20 -24 47 -24 72 -1 22 -4 52 -7 67 -4 15 -1 29 5 33 8
5 6 12 -5 25 -15 17 -15 21 0 49 11 22 23 31 41 31 24 0 64 23 111 64 23 20
23 37 0 124 -12 45 -21 50 -46 28 -15 -14 -59 -21 -110 -17 -22 1 -23 2 -8 19
14 15 15 31 6 121 -8 87 -7 107 5 119 12 12 12 19 -1 50 -10 24 -13 50 -9 76
11 67 17 392 8 416 -7 20 -17 24 -59 26 -49 2 -51 1 -81 -41z m-2 -255 c0 -5
-4 -10 -10 -10 -5 0 -10 5 -10 10 0 6 5 10 10 10 6 0 10 -4 10 -10z m-25 -206
c-1 -153 -11 -363 -18 -370 -7 -8 -135 -6 -147 1 -17 10 -11 79 10 120 11 21
25 65 31 98 7 32 18 61 25 64 8 3 14 15 14 27 0 11 7 30 15 40 8 11 15 37 15
59 0 39 27 89 45 83 6 -1 10 -51 10 -122z m190 -364 c3 -5 2 -10 -4 -10 -5 0
-13 5 -16 10 -3 6 -2 10 4 10 5 0 13 -4 16 -10z m23 -132 c-3 -7 -11 -13 -18
-13 -7 0 -15 6 -17 13 -3 7 4 12 17 12 13 0 20 -5 18 -12z"/>
<path d="M10978 1770 c-16 -16 -35 -30 -42 -30 -7 0 -22 -11 -34 -25 -12 -13
-33 -27 -47 -31 -14 -3 -25 -9 -25 -13 0 -3 -16 -30 -35 -60 -19 -29 -35 -61
-35 -70 0 -10 -3 -21 -7 -25 -13 -13 -43 -100 -43 -125 0 -14 -7 -33 -17 -43
-9 -11 -16 -36 -17 -63 -1 -28 -6 -47 -15 -50 -7 -3 -10 -12 -7 -21 4 -9 1
-23 -5 -31 -12 -13 -21 -144 -19 -267 1 -38 -5 -67 -15 -83 -12 -18 -13 -28
-6 -37 6 -7 14 -35 17 -62 4 -27 11 -54 16 -60 4 -6 6 -18 3 -26 -4 -9 1 -18
9 -21 12 -5 16 -22 16 -77 0 -54 3 -70 14 -70 8 0 17 -9 21 -19 3 -12 12 -17
23 -14 9 2 39 -7 65 -22 27 -14 52 -23 57 -20 5 3 12 -4 15 -16 5 -15 10 -18
18 -10 6 6 26 11 45 11 51 0 145 46 166 81 9 16 21 29 27 29 5 0 9 7 9 16 0
17 26 68 49 97 11 13 14 45 13 130 -2 110 -3 134 -3 211 0 21 -11 67 -24 103
-14 36 -25 73 -25 83 0 9 -22 38 -50 64 -48 45 -51 46 -112 46 -59 0 -66 -2
-91 -31 -15 -17 -27 -35 -27 -40 0 -11 -12 -11 -34 -3 -14 5 -16 19 -10 97 4
50 13 102 21 116 7 14 13 35 13 46 0 12 20 52 45 89 25 38 45 73 45 79 0 5 6
7 14 4 8 -3 30 8 49 26 19 18 49 40 66 49 26 15 31 23 31 56 0 47 -14 62 -58
62 -24 0 -42 -9 -64 -30z m-27 -666 c7 -9 23 -20 36 -25 13 -5 23 -17 23 -27
0 -10 3 -22 8 -26 4 -4 7 -90 7 -191 0 -173 -1 -184 -19 -189 -16 -4 -17 -8
-7 -20 9 -10 9 -20 2 -35 -6 -12 -15 -30 -21 -41 -5 -11 -10 -26 -10 -35 0 -8
-12 -18 -27 -21 -39 -10 -76 15 -91 61 -28 82 -43 151 -41 185 2 20 0 40 -3
46 -13 20 -16 120 -6 164 5 25 10 57 11 71 3 42 24 59 76 60 47 1 47 3 -2 13
-15 4 -25 11 -22 16 10 16 71 11 86 -6z"/>
<path d="M10703 1603 c-18 -6 -16 -33 1 -33 15 0 30 27 18 33 -4 3 -13 2 -19
0z"/>
<path d="M3176 1507 c-16 -12 -19 -25 -17 -68 1 -30 6 -58 11 -63 5 -5 3 -17
-3 -27 -9 -14 -9 -21 1 -31 20 -20 14 -55 -10 -63 l-23 -8 24 -4 c22 -4 23 -8
18 -59 -4 -43 -3 -54 9 -54 8 0 14 -4 14 -9 0 -5 -16 -5 -37 0 -65 15 -143 8
-191 -17 -8 -4 -23 -127 -18 -147 8 -33 60 -53 108 -40 21 6 38 6 38 2 0 -5
-4 -9 -10 -9 -17 0 -11 -20 8 -28 10 -4 34 -20 52 -35 33 -28 33 -28 25 -90
-9 -78 -10 -147 0 -170 4 -10 2 -24 -5 -32 -15 -19 -16 -18 38 -34 37 -10 47
-10 66 2 21 14 23 23 24 125 2 61 -2 113 -7 116 -13 8 -1 99 15 112 8 6 14 19
14 29 0 15 7 17 58 12 81 -7 117 16 127 81 21 132 12 147 -84 136 -42 -4 -61
-11 -61 -20 0 -27 -28 -13 -34 17 -3 19 -13 33 -25 36 -26 7 -30 20 -22 68 5
34 10 40 34 43 37 5 36 32 -2 32 l-29 0 -1 97 c-1 54 -3 98 -4 99 -1 1 -20 5
-42 8 -28 5 -46 3 -59 -7z m14 -598 c7 -11 10 -22 8 -24 -7 -7 -44 -7 -67 0
l-24 8 24 18 c31 24 46 24 59 -2z m108 10 c-2 -6 -8 -10 -13 -10 -5 0 -11 4
-13 10 -2 6 4 11 13 11 9 0 15 -5 13 -11z"/>
<path d="M10633 1504 c-7 -19 2 -28 22 -21 19 8 19 23 0 31 -9 3 -18 -1 -22
-10z"/>
<path d="M8380 1414 c0 -8 5 -12 10 -9 6 3 10 10 10 16 0 5 -4 9 -10 9 -5 0
-10 -7 -10 -16z"/>
<path d="M2419 1362 c6 -11 6 -24 0 -35 -6 -9 -11 -60 -13 -113 -2 -85 0 -98
19 -120 28 -33 81 -39 120 -15 l30 18 -1 125 c-1 154 -4 158 -99 158 -60 0
-65 -2 -56 -18z"/>
<path d="M2450 743 c-37 -7 -42 -15 -46 -81 -3 -45 -1 -61 10 -65 12 -5 12
-14 4 -49 -6 -24 -15 -47 -19 -53 -14 -15 -10 -28 6 -21 9 3 15 0 15 -9 0 -22
33 -35 89 -35 47 0 51 2 58 28 4 15 8 75 8 134 0 94 -2 110 -20 127 -22 21
-66 31 -105 24z"/>
<path d="M3930 730 c0 -5 5 -10 10 -10 6 0 10 5 10 10 0 6 -4 10 -10 10 -5 0
-10 -4 -10 -10z"/>
<path d="M3067 674 c-13 -13 -7 -24 14 -24 11 0 19 5 17 12 -5 14 -22 21 -31
12z"/>
<path d="M6467 669 c-9 -6 -17 -14 -17 -19 0 -17 27 -11 34 6 8 22 5 25 -17
13z"/>
<path d="M3003 635 c-3 -9 -3 -18 0 -21 9 -9 27 6 27 22 0 19 -19 18 -27 -1z"/>
<path d="M1240 633 c0 -17 17 -30 43 -35 37 -7 43 6 12 26 -25 17 -55 21 -55
9z"/>
<path d="M2960 590 c0 -5 7 -10 15 -10 8 0 15 5 15 10 0 6 -7 10 -15 10 -8 0
-15 -4 -15 -10z"/>
<path d="M5475 570 c3 -5 10 -10 16 -10 5 0 9 5 9 10 0 6 -7 10 -16 10 -8 0
-12 -4 -9 -10z"/>
<path d="M4180 450 c0 -5 7 -10 15 -10 8 0 15 5 15 10 0 6 -7 10 -15 10 -8 0
-15 -4 -15 -10z"/>
<path d="M6515 420 c-3 -5 -1 -10 4 -10 6 0 11 5 11 10 0 6 -2 10 -4 10 -3 0
-8 -4 -11 -10z"/>
<path d="M9090 390 c0 -5 5 -10 10 -10 6 0 10 5 10 10 0 6 -4 10 -10 10 -5 0
-10 -4 -10 -10z"/>
<path d="M7680 354 c0 -17 22 -14 28 4 2 7 -3 12 -12 12 -9 0 -16 -7 -16 -16z"/>
<path d="M9928 353 c7 -3 16 -2 19 1 4 3 -2 6 -13 5 -11 0 -14 -3 -6 -6z"/>
<path d="M10320 345 c0 -8 7 -15 15 -15 8 0 15 7 15 15 0 8 -7 15 -15 15 -8 0
-15 -7 -15 -15z"/>
<path d="M10300 300 c0 -5 5 -10 10 -10 6 0 10 5 10 10 0 6 -4 10 -10 10 -5 0
-10 -4 -10 -10z"/>
<path d="M6030 234 c0 -14 4 -23 9 -20 5 3 7 15 4 26 -7 28 -13 25 -13 -6z"/>
<path d="M180 185 c0 -8 5 -15 10 -15 6 0 10 7 10 15 0 8 -4 15 -10 15 -5 0
-10 -7 -10 -15z"/>
</g>
</svg>
